{
  "source": "C:\\Users\\Peter\\Desktop\\stuff\\MIUN\\quantitative_research\\video_compression\\videos\\BVI-HD\\BVI-HD_CDVL_videos\\ORIG\\CarpetCircleFast_1920x1080_60fps.mp4",
  "output": "C:\\Users\\Peter\\Desktop\\stuff\\MIUN\\quantitative_research\\video_compression\\compressed_videos\\BVI-HD\\av1\\1\\CarpetCircleFast_1920x1080_60fps_av1.mkv",
  "codec": "av1",
  "ok": "Input #0, mov,mp4,m4a,3gp,3g2,mj2, from 'C:\\Users\\Peter\\Desktop\\stuff\\MIUN\\quantitative_research\\video_compression\\videos\\BVI-HD\\BVI-HD_CDVL_videos\\ORIG\\CarpetCircleFast_1920x1080_60fps.mp4':\n  Metadata:\n    major_brand     : isom\n    minor_version   : 512\n    compatible_brands: isomiso2avc1mp41\n    encoder         : Lavf54.28.101\n  Duration: 00:00:05.00, start: 0.000000, bitrate: 324759 kb/s\n  Stream #0:0[0x1](und): Video: h264 (High 4:4:4 Predictive) (avc1 / 0x31637661), yuv420p(progressive), 1920x1080, 324754 kb/s, 60 fps, 60 tbr, 60 tbn (default)\n    Metadata:\n      handler_name    : VideoHandler\n      vendor_id       : [0][0][0][0]\n[out#0/matroska @ 000001aee798cd80] Codec AVOption b:a (set bitrate (in bits/s)) has not been used for any stream. The most likely reason is either wrong type (e.g. a video option with no video streams) or that it is a private option of some decoder which was not actually used for any stream.\nStream mapping:\n  Stream #0:0 -> #0:0 (h264 (native) -> av1 (libsvtav1))\nPress [q] to stop, [?] for help\nSvt[info]: -------------------------------------------\nSvt[info]: SVT [version]:\tSVT-AV1 Encoder Lib v3.1.0-19-g6ecfe8ec\nSvt[info]: SVT [build]  :\tGCC 15.2.0\t 64 bit\nSvt[info]: LIB Build date: Aug 17 2025 11:37:13\nSvt[info]: -------------------------------------------\nSvt[info]: Level of Parallelism: 5\nSvt[info]: Number of PPCS 93\nSvt[info]: [asm level on system : up to avx2]\nSvt[info]: [asm level selected : up to avx2]\nSvt[info]: -------------------------------------------\nSvt[info]: SVT [config]: main profile\ttier (auto)\tlevel (auto)\nSvt[info]: SVT [config]: width / height / fps numerator / fps denominator \t\t: 1920 / 1080 / 60 / 1\nSvt[info]: SVT [config]: bit-depth / color format \t\t\t\t\t: 8 / YUV420\nSvt[info]: SVT [config]: preset / tune / pred struct \t\t\t\t\t: 4 / PSNR / random access\nSvt[info]: SVT [config]: gop size / mini-gop size / key-frame type \t\t\t: 321 / 16 / key frame\nSvt[info]: SVT [config]: BRC mode / target bitrate (kbps)\t\t\t\t: VBR / 1000 \nSvt[info]: SVT [config]: AQ mode / Variance Boost \t\t\t\t\t: 2 / 0\nSvt[info]: SVT [config]: sharpness / luminance-based QP bias \t\t\t\t: 0 / 0\nSvt[info]: SVT [config]: QP scale compress strength \t\t\t\t\t: 0\nSvt[info]: -------------------------------------------\nOutput #0, matroska, to 'C:\\Users\\Peter\\Desktop\\stuff\\MIUN\\quantitative_research\\video_compression\\compressed_videos\\BVI-HD\\av1\\1\\CarpetCircleFast_1920x1080_60fps_av1.mkv':\n  Metadata:\n    major_brand     : isom\n    minor_version   : 512\n    compatible_brands: isomiso2avc1mp41\n    encoder         : Lavf62.3.100\n  Stream #0:0(und): Video: av1 (AV01 / 0x31305641), yuv420p(tv, progressive), 1920x1080, q=2-31, 1000 kb/s, 60 fps, 1k tbn (default)\n    Metadata:\n      encoder         : Lavc62.11.100 libsvtav1\n      handler_name    : VideoHandler\n      vendor_id       : [0][0][0][0]\n    Side data:\n      cpb: bitrate max/min/avg: 0/0/1000000 buffer size: 1000000 vbv_delay: N/A\nframe=    0 fps=0.0 q=0.0 size=       0KiB time=N/A bitrate=N/A speed=N/A elapsed=0:00:01.04    \nframe=    0 fps=0.0 q=0.0 size=       0KiB time=N/A bitrate=N/A speed=N/A elapsed=0:00:01.60    \nframe=    0 fps=0.0 q=0.0 size=       0KiB time=N/A bitrate=N/A speed=N/A elapsed=0:00:02.15    \nframe=    0 fps=0.0 q=0.0 size=       0KiB time=N/A bitrate=N/A speed=N/A elapsed=0:00:02.68    \nframe=    0 fps=0.0 q=0.0 size=       0KiB time=N/A bitrate=N/A speed=N/A elapsed=0:00:03.20    \nframe=    1 fps=0.3 q=28.0 size=       1KiB time=00:00:00.00 bitrate=N/A speed=   0x elapsed=0:00:03.71    \nframe=   11 fps=2.6 q=46.0 size=       1KiB time=00:00:00.15 bitrate=  38.0kbits/s speed=0.0355x elapsed=0:00:04.22    \nframe=   22 fps=4.6 q=43.0 size=       1KiB time=00:00:00.35 bitrate=  16.3kbits/s speed=0.0726x elapsed=0:00:04.81    \nframe=   30 fps=5.6 q=40.0 size=       1KiB time=00:00:00.48 bitrate=  11.8kbits/s speed=0.09x elapsed=0:00:05.37    \nframe=   36 fps=6.1 q=37.0 size=       1KiB time=00:00:00.58 bitrate=   9.8kbits/s speed=0.099x elapsed=0:00:05.89    \nframe=   42 fps=6.6 q=35.0 size=       1KiB time=00:00:00.68 bitrate=   8.3kbits/s speed=0.107x elapsed=0:00:06.39    \nframe=   47 fps=6.7 q=35.0 size=       1KiB time=00:00:00.75 bitrate=   7.6kbits/s speed=0.108x elapsed=0:00:06.97    \nframe=   54 fps=7.2 q=33.0 size=       1KiB time=00:00:00.88 bitrate=   6.4kbits/s speed=0.118x elapsed=0:00:07.50    \nframe=   61 fps=7.6 q=48.0 size=       1KiB time=00:00:01.00 bitrate=   5.7kbits/s speed=0.124x elapsed=0:00:08.04    \nframe=   68 fps=7.9 q=38.0 size=       1KiB time=00:00:01.11 bitrate=   5.1kbits/s speed=0.13x elapsed=0:00:08.59    \nframe=   75 fps=8.2 q=41.0 size=       1KiB time=00:00:01.23 bitrate=   4.6kbits/s speed=0.135x elapsed=0:00:09.12    \nframe=   83 fps=8.6 q=38.0 size=       1KiB time=00:00:01.36 bitrate=   4.2kbits/s speed=0.142x elapsed=0:00:09.64    \nframe=   91 fps=9.0 q=43.0 size=       1KiB time=00:00:01.48 bitrate=   3.8kbits/s speed=0.146x elapsed=0:00:10.16    \nframe=   98 fps=9.1 q=39.0 size=       1KiB time=00:00:01.61 bitrate=   3.5kbits/s speed=0.151x elapsed=0:00:10.73    \nframe=  107 fps=9.5 q=44.0 size=       1KiB time=00:00:01.76 bitrate=   3.2kbits/s speed=0.157x elapsed=0:00:11.24    \nframe=  118 fps= 10 q=40.0 size=       1KiB time=00:00:01.95 bitrate=   2.9kbits/s speed=0.165x elapsed=0:00:11.79    \nframe=  126 fps= 10 q=39.0 size=       1KiB time=00:00:02.08 bitrate=   2.7kbits/s speed=0.169x elapsed=0:00:12.30    \nframe=  135 fps= 11 q=39.0 size=       1KiB time=00:00:02.23 bitrate=   2.6kbits/s speed=0.174x elapsed=0:00:12.81    \nframe=  142 fps= 11 q=38.0 size=       1KiB time=00:00:02.33 bitrate=   2.4kbits/s speed=0.175x elapsed=0:00:13.35    \nframe=  152 fps= 11 q=35.0 size=       1KiB time=00:00:02.51 bitrate=   2.3kbits/s speed=0.181x elapsed=0:00:13.89    \nframe=  162 fps= 11 q=40.0 size=       1KiB time=00:00:02.68 bitrate=   2.1kbits/s speed=0.186x elapsed=0:00:14.41    \nframe=  172 fps= 11 q=39.0 size=       1KiB time=00:00:02.81 bitrate=   2.0kbits/s speed=0.188x elapsed=0:00:14.96    \nframe=  183 fps= 12 q=39.0 size=       1KiB time=00:00:03.01 bitrate=   1.9kbits/s speed=0.194x elapsed=0:00:15.53    \nframe=  194 fps= 12 q=42.0 size=       1KiB time=00:00:03.21 bitrate=   1.8kbits/s speed= 0.2x elapsed=0:00:16.06    \nframe=  205 fps= 12 q=39.0 size=       1KiB time=00:00:03.40 bitrate=   1.7kbits/s speed=0.205x elapsed=0:00:16.60    \nframe=  217 fps= 13 q=36.0 size=       1KiB time=00:00:03.60 bitrate=   1.6kbits/s speed=0.21x elapsed=0:00:17.13    \nframe=  229 fps= 13 q=42.0 size=       1KiB time=00:00:03.80 bitrate=   1.5kbits/s speed=0.215x elapsed=0:00:17.66    \nframe=  243 fps= 13 q=42.0 size=       1KiB time=00:00:04.03 bitrate=   1.4kbits/s speed=0.222x elapsed=0:00:18.18    \nframe=  257 fps= 14 q=31.0 size=       1KiB time=00:00:04.26 bitrate=   1.3kbits/s speed=0.228x elapsed=0:00:18.69    \nframe=  269 fps= 14 q=39.0 size=       1KiB time=00:00:04.46 bitrate=   1.3kbits/s speed=0.232x elapsed=0:00:19.23    \nframe=  283 fps= 14 q=40.0 size=       1KiB time=00:00:04.70 bitrate=   1.2kbits/s speed=0.238x elapsed=0:00:19.74    \n[out#0/matroska @ 000001aee798cd80] video:549KiB audio:0KiB subtitle:0KiB other streams:0KiB global headers:0KiB muxing overhead: 0.373508%\nframe=  300 fps= 15 q=49.0 Lsize=     551KiB time=00:00:04.98 bitrate= 905.1kbits/s speed=0.25x elapsed=0:00:19.92    \n",
  "seconds": 20.32836127281189,
  "probe_out": {}
}